<svg xmlns="http://www.w3.org/2000/svg" width="256" height="256" viewBox="-557 203 256 256" enable-background="new -557 203 256 256"><g fill="#512200" stroke="#512200" stroke-width="3.998" stroke-miterlimit="10"><path d="M-344.1 311.7c2.8 10.6 4.3 21.8 4.3 33.5 0 1.4 0 2.7-.1 4.1l13.7 5.4 11.4-9.4 8.7 10.3-17 14.1-17.8-7.2c-2 15.7-6.8 30.3-13.7 43l2.4-3.3 13.3 7.6 12.6-7.7 7.1 11.4-18.9 11.5-20.9-12.2c-16.3 25.4-41.6 41.7-70.1 41.7-28.4 0-53.6-16.2-69.9-41.5l-20.6 12-18.9-11.5 7.1-11.4 12.7 7.7 13.3-7.6 1 1.3c-6.3-12.2-10.6-25.9-12.6-40.7l-17.2 6.9-17-14.1 8.7-10.3 11.4 9.4 13.1-5.1c0-1.4-.1-2.8-.1-4.3 0-11.7 1.5-23 4.3-33.5l-22.2-.8-9.7-19.8 12.2-5.8 6.5 13.2 15.4.7.3 4.4c9.2-27.3 27.2-49.1 49.7-59.9.4-8.4 7.4-15.1 16-15.1h37.3c8.9 0 16 7.1 16 15.9l-.1 1.1c21.2 11.6 37.9 33 46.5 59.6l.4-6 15.4-.7 6.5-13.2 12.2 5.8-9.7 19.8-23 .7zM-383.9 214.5l-1.8 4.8-2.7 1.2-5.6 1.5-4.8 2.9-6.7 3.7v-3.7l7.5-5.4 5.5-1.6 4.9-3.4 2.8-5.5 5.4-1.8-1.5 5.1zM-460.2 222l-5.7-1.5-2.7-1.2-1.8-4.8-3-2.2-1.5-5.1 5.4 1.8 2.8 5.5 4.9 3.4 5.5 1.6 7.5 5.4v3.7l-6.7-3.7z"/></g></svg>